<svg width="1333" height="1333" viewBox="0 0 1333 1333" fill="none" xmlns="http://www.w3.org/2000/svg">
<g clip-path="url(#clip0_26:2)">
<rect width="1333" height="1333" fill="#1F1D2C"/>
<path d="M1333.33 1333.33H0V-1.90735e-06H1333.33V1333.33Z" fill="#1F1D2C"/>
<path d="M913.352 931.833C894.863 945.135 875.311 956.919 854.952 967.052C855.375 966.42 855.753 965.763 856.176 965.126C858.658 961.359 861.046 957.547 863.42 953.725C864.574 951.868 865.773 950.037 866.902 948.166C870.335 942.463 873.674 936.715 876.853 930.917C890.381 906.273 901.849 880.296 910.924 853.706C919.695 828.077 926.302 801.825 930.72 775.141C935.133 748.452 937.357 721.329 937.357 693.953C937.357 689.275 937.298 684.592 937.124 679.909C937.124 679.86 937.124 679.81 937.124 679.76C936.765 665.98 935.815 652.265 934.303 639.032C933.701 633.578 932.999 628.128 932.218 622.694C931.959 620.897 931.636 619.121 931.357 617.329C930.79 613.696 930.238 610.069 929.596 606.456C929.208 604.276 928.745 602.116 928.332 599.946C927.715 596.741 927.118 593.532 926.442 590.347C925.949 588.047 925.392 585.778 924.869 583.494C924.252 580.776 923.675 578.049 923.009 575.357C923.352 573.441 923.611 571.515 923.914 569.589C924.173 567.917 924.467 566.245 924.7 564.563C925.024 562.209 925.263 559.845 925.521 557.481C925.69 555.894 925.904 554.316 926.049 552.723C926.292 550.086 926.442 547.439 926.601 544.791C926.68 543.472 926.805 542.158 926.865 540.844C927.044 536.873 927.143 532.907 927.143 528.94C927.143 524.695 927.004 520.466 926.795 516.241C926.755 515.37 926.715 514.503 926.666 513.638C926.422 509.537 926.098 505.446 925.666 501.371C925.586 500.649 925.486 499.922 925.407 499.201C924.969 495.389 924.452 491.592 923.85 487.81C923.765 487.272 923.695 486.73 923.606 486.192C922.929 482.136 922.143 478.105 921.277 474.089C921.088 473.208 920.894 472.328 920.695 471.447C919.785 467.421 918.805 463.409 917.705 459.438C917.591 459.03 917.461 458.622 917.347 458.214C916.297 454.486 915.148 450.784 913.934 447.106C913.685 446.355 913.446 445.603 913.192 444.852C911.879 441 910.471 437.178 908.973 433.386C908.67 432.614 908.352 431.843 908.038 431.071C906.521 427.329 904.938 423.617 903.247 419.949C903.182 419.815 903.132 419.67 903.068 419.541C903.267 419.645 903.471 419.735 903.665 419.845C904.401 420.233 905.113 420.656 905.844 421.054C908.685 422.611 911.496 424.214 914.282 425.871C915.382 426.528 916.476 427.195 917.571 427.867C920.103 429.424 922.611 431.032 925.093 432.669C926.049 433.301 927.009 433.918 927.954 434.56C931.283 436.825 934.576 439.149 937.805 441.557C938.228 441.876 938.641 442.214 939.064 442.533C941.875 444.658 944.651 446.842 947.388 449.087C948.363 449.883 949.328 450.704 950.298 451.515C952.557 453.421 954.791 455.362 956.995 457.343C957.91 458.164 958.826 458.975 959.726 459.806C962.726 462.573 965.687 465.385 968.577 468.291C981.916 481.748 993.737 496.404 1003.98 512.209C1010.12 521.69 1015.69 531.583 1020.68 541.87C1022.54 545.234 1024.36 548.623 1026.11 552.022C1026.6 552.967 1027.06 553.923 1027.53 554.873C1028.78 557.337 1030.04 559.795 1031.23 562.279C1031.85 563.563 1032.43 564.866 1033.04 566.16C1034.05 568.315 1035.07 570.46 1036.04 572.63C1036.69 574.083 1037.3 575.551 1037.93 577.009C1038.8 579.034 1039.7 581.055 1040.54 583.091C1041.17 584.609 1041.76 586.146 1042.37 587.674C1043.16 589.665 1043.98 591.65 1044.74 593.651C1045.34 595.228 1045.9 596.816 1046.48 598.398C1047.2 600.369 1047.94 602.33 1048.62 604.311C1049.2 605.943 1049.72 607.585 1050.27 609.222C1050.91 611.168 1051.59 613.109 1052.2 615.06C1052.73 616.727 1053.21 618.404 1053.72 620.076C1054.31 622.022 1054.91 623.958 1055.47 625.909C1055.95 627.601 1056.39 629.303 1056.85 631C1057.38 632.946 1057.92 634.887 1058.42 636.842C1058.86 638.569 1059.26 640.306 1059.68 642.043C1060.14 643.984 1060.63 645.92 1061.06 647.865C1061.46 649.617 1061.81 651.379 1062.18 653.141C1062.59 655.081 1063.01 657.022 1063.4 658.973C1063.74 660.75 1064.04 662.536 1064.37 664.318C1064.72 666.269 1065.09 668.214 1065.41 670.17C1065.71 671.962 1065.96 673.758 1066.23 675.55C1066.53 677.516 1066.84 679.476 1067.11 681.447C1067.36 683.259 1067.57 685.085 1067.79 686.907C1068.03 688.867 1068.29 690.828 1068.5 692.794C1068.7 694.635 1068.86 696.486 1069.03 698.333C1069.22 700.293 1069.42 702.254 1069.58 704.225C1069.73 706.076 1069.83 707.942 1069.95 709.804C1070.07 711.535 1070.19 713.267 1070.29 715.004C1043.15 801.616 987.469 878.569 913.352 931.833V931.833ZM667.025 1114.46C606.854 1082.58 553.25 1037.16 511.791 982.887C497.298 964.011 484.049 943.707 472.411 922.531C459.366 898.768 448.311 873.717 439.554 848.062C422.633 798.63 414.056 746.779 414.056 693.953C414.056 689.444 414.111 684.936 414.28 680.432C414.285 680.317 414.285 680.208 414.285 680.099C414.549 670.175 415.23 660.347 416.121 650.642C416.414 647.408 416.643 644.133 417.006 640.943C417.006 640.938 417.006 640.933 417.006 640.928C417.559 635.932 418.205 630.95 418.917 625.974C419.151 624.331 419.424 622.704 419.673 621.072C420.066 618.539 420.474 616.015 420.902 613.492C420.912 613.527 420.927 613.557 420.942 613.592C422.489 618.106 424.191 622.56 425.982 626.969C426.27 627.681 426.549 628.392 426.848 629.104C428.614 633.349 430.499 637.534 432.49 641.675C432.858 642.436 433.231 643.187 433.599 643.949C435.649 648.104 437.793 652.21 440.062 656.251C440.365 656.793 440.689 657.331 441.002 657.873C443.361 662.009 445.813 666.09 448.401 670.091C448.48 670.205 448.55 670.329 448.624 670.449C451.241 674.475 453.998 678.412 456.839 682.293C457.267 682.881 457.684 683.473 458.117 684.05C460.874 687.752 463.734 691.375 466.69 694.929C467.232 695.585 467.784 696.242 468.337 696.894C471.337 700.428 474.416 703.906 477.61 707.291C478.088 707.793 478.576 708.286 479.053 708.783C482.442 712.317 485.904 715.786 489.501 719.14C490.472 723.962 491.601 728.854 492.88 733.781C494.158 738.703 495.586 743.664 497.158 748.626C499.885 757.29 502.999 765.78 506.502 774.091C508.253 778.246 510.099 782.357 512.04 786.423C514.169 790.872 516.438 795.256 518.791 799.591C527.184 815.043 536.991 829.753 548.205 843.603C548.205 843.603 548.205 843.603 548.205 843.608C548.205 843.608 548.21 843.608 548.21 843.613C555.882 853.103 564.136 862.086 572.892 870.507C594.799 891.577 619.894 909.16 647.124 922.467C652.572 925.124 658.104 927.618 663.711 929.932C664.776 930.37 665.905 930.584 667.03 930.584C667.348 930.584 667.662 930.529 667.98 930.494C668.224 930.469 668.473 930.469 668.717 930.419C669.274 930.31 669.821 930.146 670.353 929.927C675.97 927.608 681.508 925.109 686.961 922.447C725.116 903.785 759.023 876.782 785.79 843.608C785.795 843.608 785.795 843.603 785.795 843.603C785.8 843.598 785.8 843.598 785.8 843.598C808.776 815.217 825.946 783.268 836.837 748.641C839.986 738.688 842.558 728.779 844.499 719.14C848.096 715.781 851.564 712.312 854.952 708.774C855.424 708.281 855.912 707.793 856.38 707.291C859.574 703.906 862.663 700.433 865.663 696.894C866.216 696.238 866.768 695.581 867.315 694.924C870.266 691.37 873.126 687.752 875.878 684.06C876.321 683.468 876.743 682.865 877.176 682.268C880.012 678.396 882.764 674.47 885.371 670.454C885.46 670.32 885.54 670.18 885.629 670.041C888.202 666.06 890.644 661.999 892.993 657.888C893.311 657.336 893.64 656.788 893.948 656.236C896.212 652.205 898.351 648.109 900.396 643.959C900.774 643.192 901.147 642.431 901.515 641.665C903.506 637.534 905.386 633.349 907.152 629.114C907.446 628.397 907.735 627.68 908.023 626.964C909.814 622.555 911.511 618.111 913.053 613.607C913.068 613.567 913.083 613.537 913.098 613.497C913.526 616.03 913.939 618.568 914.332 621.106C914.581 622.734 914.854 624.351 915.083 625.978C915.795 630.965 916.446 635.967 916.999 640.978C918.451 653.703 919.367 666.866 919.715 680.099C919.715 680.208 919.715 680.317 919.72 680.432C919.889 684.936 919.944 689.444 919.944 693.953C919.944 746.779 911.367 798.63 894.446 848.067C885.689 873.716 874.634 898.769 861.584 922.537C857.419 930.136 852.942 937.621 848.315 945.046C840.23 958.024 831.543 970.739 822.199 982.962C780.681 1037.18 727.102 1082.58 667.025 1114.46V1114.46ZM420.643 931.828C346.566 878.613 290.903 801.716 263.767 715.168C263.862 713.407 263.986 711.65 264.101 709.893C264.225 708.052 264.325 706.206 264.474 704.369C264.628 702.364 264.832 700.363 265.021 698.363C265.19 696.546 265.345 694.72 265.539 692.903C265.753 690.913 266.011 688.932 266.255 686.946C266.474 685.135 266.678 683.318 266.922 681.512C267.195 679.521 267.514 677.541 267.812 675.555C268.081 673.773 268.33 671.987 268.628 670.21C268.957 668.219 269.335 666.234 269.693 664.248C270.006 662.486 270.305 660.725 270.648 658.973C271.031 656.987 271.469 655.017 271.882 653.046C272.25 651.304 272.599 649.557 272.987 647.826C273.434 645.83 273.932 643.849 274.41 641.864C274.823 640.167 275.211 638.455 275.643 636.763C276.156 634.742 276.723 632.737 277.265 630.731C277.718 629.079 278.141 627.422 278.614 625.779C279.191 623.754 279.823 621.743 280.435 619.728C280.922 618.111 281.39 616.488 281.902 614.876C282.539 612.865 283.231 610.87 283.897 608.869C284.435 607.267 284.947 605.659 285.509 604.057C286.221 602.026 286.982 600.006 287.728 597.985C288.296 596.438 288.838 594.88 289.425 593.342C290.206 591.307 291.037 589.276 291.853 587.251C292.46 585.738 293.037 584.21 293.664 582.702C294.525 580.632 295.44 578.577 296.336 576.517C296.963 575.068 297.565 573.615 298.211 572.167C299.216 569.938 300.276 567.718 301.321 565.498C301.908 564.244 302.475 562.98 303.077 561.726C304.321 559.153 305.63 556.59 306.928 554.032C307.381 553.151 307.804 552.261 308.257 551.385C310.038 547.946 311.869 544.527 313.754 541.128C317.008 534.455 320.521 527.935 324.292 521.57C328.859 513.857 333.854 506.412 339.168 499.181C342.616 494.493 346.168 489.875 349.92 485.401C352.303 482.559 354.746 479.767 357.248 477.015C359.746 474.268 362.308 471.566 364.93 468.908C364.935 468.903 364.945 468.893 364.955 468.884C367.841 465.952 370.806 463.111 373.801 460.324C374.707 459.483 375.627 458.667 376.542 457.835C378.751 455.84 380.99 453.874 383.259 451.958C384.234 451.127 385.209 450.296 386.199 449.48C388.901 447.255 391.647 445.081 394.424 442.966C394.896 442.607 395.359 442.229 395.832 441.871C399.085 439.432 402.394 437.078 405.742 434.794C406.678 434.157 407.633 433.545 408.573 432.918C411.081 431.256 413.613 429.624 416.176 428.046C417.285 427.364 418.395 426.683 419.509 426.016C422.265 424.368 425.051 422.776 427.868 421.228C428.654 420.8 429.425 420.347 430.216 419.919C430.445 419.795 430.689 419.685 430.922 419.561C430.853 419.705 430.803 419.849 430.733 419.994C429.047 423.652 427.469 427.354 425.957 431.086C425.649 431.858 425.325 432.625 425.022 433.396C423.529 437.188 422.121 441.01 420.808 444.861C420.549 445.613 420.31 446.369 420.066 447.121C418.847 450.789 417.703 454.486 416.658 458.209C416.539 458.622 416.409 459.035 416.29 459.453C415.195 463.424 414.215 467.435 413.305 471.456C413.106 472.332 412.912 473.213 412.723 474.094C411.857 478.11 411.066 482.136 410.394 486.192C410.305 486.74 410.235 487.287 410.146 487.834C409.544 491.607 409.031 495.394 408.593 499.196C408.509 499.927 408.414 500.649 408.339 501.38C407.902 505.451 407.573 509.542 407.334 513.643C407.285 514.509 407.245 515.375 407.205 516.241C407.001 520.466 406.857 524.695 406.857 528.94C406.857 532.907 406.951 536.873 407.135 540.844C407.195 542.138 407.315 543.427 407.394 544.721C407.553 547.394 407.708 550.071 407.951 552.739C408.091 554.276 408.295 555.809 408.464 557.342C408.728 559.76 408.976 562.179 409.305 564.588C409.529 566.24 409.817 567.882 410.076 569.53C410.379 571.47 410.643 573.421 410.991 575.357C410.325 578.054 409.743 580.787 409.126 583.504C408.603 585.788 408.051 588.052 407.558 590.347C406.882 593.532 406.285 596.741 405.668 599.946C405.25 602.116 404.797 604.276 404.409 606.45C403.762 610.068 403.205 613.706 402.643 617.344C402.364 619.126 402.041 620.892 401.787 622.674C401.001 628.108 400.304 633.548 399.702 638.997C398.185 652.265 397.235 665.98 396.876 679.76C396.876 679.81 396.871 679.86 396.871 679.909C396.697 684.587 396.643 689.27 396.643 693.953C396.643 721.329 398.867 748.452 403.28 775.141C407.698 801.825 414.305 828.071 423.076 853.701C432.156 880.295 443.619 906.273 457.152 930.922C460.371 936.78 463.729 942.562 467.177 948.28C468.307 950.147 469.496 951.968 470.645 953.819C473.023 957.641 475.406 961.453 477.879 965.201C478.277 965.803 478.645 966.43 479.048 967.032C458.719 956.934 439.166 945.15 420.643 931.828V931.828ZM700.116 576.153C720.484 603.325 731.893 636.648 731.893 671.499C731.893 675.227 731.719 678.959 731.46 682.671C731.415 683.383 731.37 684.09 731.311 684.796C731.266 685.379 731.166 685.941 731.112 686.518C730.783 686.434 730.44 686.379 730.112 686.299C725.818 685.234 721.494 684.289 717.146 683.448C716.255 683.274 715.37 683.08 714.474 682.915C710.086 682.109 705.668 681.442 701.245 680.865C700.016 680.701 698.787 680.546 697.553 680.402C693.2 679.894 688.842 679.482 684.463 679.193C683.294 679.118 682.125 679.068 680.956 679.009C676.757 678.785 672.552 678.646 668.343 678.621C667.438 678.621 666.532 678.616 665.627 678.621C661.413 678.646 657.199 678.785 652.99 679.009C651.825 679.073 650.661 679.118 649.492 679.198C645.119 679.486 640.75 679.9 636.392 680.407C635.173 680.551 633.954 680.706 632.735 680.865C628.302 681.447 623.884 682.114 619.491 682.92C618.61 683.084 617.735 683.274 616.854 683.448C612.506 684.289 608.172 685.234 603.869 686.304C603.545 686.384 603.212 686.434 602.888 686.518C602.834 685.941 602.734 685.379 602.689 684.801C602.63 684.09 602.59 683.378 602.535 682.667C602.281 678.954 602.102 675.227 602.102 671.499C602.102 620.738 626.262 573.277 667.025 543.353C672.115 547.105 676.946 551.121 681.503 555.391C688.339 561.791 694.563 568.743 700.116 576.153V576.153ZM632.034 764.337C631.382 763.436 630.79 762.496 630.158 761.575C628.869 759.709 627.591 757.837 626.392 755.921C625.69 754.802 625.038 753.652 624.367 752.513C623.317 750.751 622.277 748.984 621.302 747.182C620.635 745.948 620.013 744.699 619.377 743.45C618.481 741.693 617.605 739.932 616.779 738.145C616.177 736.841 615.605 735.527 615.043 734.209C614.277 732.427 613.536 730.636 612.834 728.824C612.317 727.48 611.814 726.132 611.326 724.768C610.68 722.942 610.068 721.1 609.486 719.249C609.053 717.881 608.625 716.512 608.232 715.133C607.69 713.237 607.207 711.326 606.734 709.41C606.401 708.052 606.058 706.693 605.759 705.325C605.65 704.837 605.58 704.339 605.476 703.852C605.58 703.827 605.68 703.792 605.784 703.767C610.147 702.637 614.55 701.662 618.973 700.781C619.884 700.597 620.79 700.408 621.7 700.239C625.939 699.443 630.198 698.766 634.472 698.198C635.521 698.059 636.566 697.93 637.616 697.805C641.89 697.293 646.173 696.87 650.472 696.581C651.398 696.521 652.323 696.481 653.248 696.432C657.492 696.198 661.746 696.049 665.995 696.029C666.657 696.029 667.313 696.029 667.97 696.029C672.209 696.049 676.453 696.193 680.687 696.432C681.622 696.481 682.558 696.516 683.493 696.581C687.782 696.865 692.056 697.288 696.324 697.795C697.389 697.925 698.454 698.054 699.514 698.193C703.777 698.761 708.026 699.438 712.255 700.229C713.181 700.403 714.106 700.597 715.032 700.781C719.445 701.662 723.848 702.632 728.206 703.762C728.316 703.792 728.42 703.822 728.525 703.852C728.425 704.339 728.345 704.837 728.241 705.325C727.942 706.693 727.599 708.052 727.266 709.416C726.793 711.327 726.31 713.238 725.768 715.129C725.375 716.512 724.947 717.886 724.514 719.259C723.932 721.105 723.325 722.937 722.674 724.763C722.191 726.127 721.688 727.48 721.166 728.829C720.465 730.635 719.728 732.427 718.962 734.209C718.395 735.522 717.828 736.836 717.226 738.135C716.4 739.927 715.519 741.688 714.628 743.45C713.992 744.694 713.37 745.943 712.703 747.178C711.733 748.974 710.693 750.736 709.648 752.497C708.972 753.637 708.325 754.792 707.618 755.911C706.419 757.822 705.146 759.689 703.867 761.55C703.235 762.47 702.633 763.411 701.981 764.322C700.011 767.064 697.961 769.756 695.807 772.374C687.24 782.73 677.578 791.867 667.03 799.606C656.398 791.822 646.726 782.69 638.213 772.404C636.064 769.781 634.009 767.084 632.034 764.337V764.337ZM734.684 870.751C731.793 873.164 728.878 875.543 725.893 877.837C724.395 878.987 722.863 880.092 721.345 881.211C718.668 883.182 715.962 885.123 713.216 886.994C711.569 888.119 709.902 889.218 708.23 890.308C705.479 892.1 702.693 893.832 699.877 895.524C698.205 896.524 696.538 897.529 694.852 898.5C691.792 900.246 688.682 901.909 685.553 903.541C684.075 904.312 682.612 905.123 681.115 905.87C676.483 908.179 671.791 910.389 667.03 912.429C662.269 910.394 657.587 908.189 652.955 905.885C651.457 905.139 649.994 904.327 648.517 903.556C645.392 901.929 642.288 900.271 639.233 898.525C637.536 897.554 635.875 896.549 634.203 895.544C631.387 893.857 628.601 892.12 625.849 890.333C624.178 889.248 622.511 888.148 620.864 887.024C618.118 885.153 615.411 883.212 612.73 881.236C611.212 880.121 609.68 879.016 608.187 877.867C605.197 875.573 602.276 873.189 599.386 870.77C598.291 869.86 597.172 868.989 596.092 868.063C592.167 864.674 588.326 861.186 584.589 857.583C583.863 856.881 583.181 856.134 582.46 855.418C579.937 852.934 577.48 850.386 575.052 847.804C599.684 847.585 623.441 842.25 645.367 832.317C645.517 832.252 645.661 832.192 645.81 832.122C649.228 830.56 652.606 828.888 655.935 827.106C656.413 826.847 656.885 826.583 657.358 826.32C660.627 824.528 663.861 822.667 667.03 820.666C670.508 822.866 674.055 824.936 677.662 826.877C678.886 827.534 680.155 828.096 681.389 828.723C683.797 829.948 686.195 831.197 688.648 832.301C690.15 832.983 691.692 833.546 693.21 834.183C695.454 835.118 697.678 836.094 699.956 836.935C701.608 837.547 703.295 838.045 704.967 838.607C707.156 839.339 709.33 840.115 711.549 840.762C713.295 841.274 715.076 841.667 716.838 842.125C719.017 842.688 721.186 843.29 723.39 843.773C725.211 844.166 727.052 844.449 728.883 844.788C731.067 845.191 733.246 845.634 735.45 845.952C737.316 846.221 739.206 846.385 741.082 846.599C743.281 846.843 745.475 847.127 747.684 847.296C749.595 847.435 751.52 847.47 753.441 847.555C755.282 847.634 757.117 847.784 758.968 847.804C756.555 850.372 754.112 852.91 751.61 855.383C750.878 856.1 750.187 856.856 749.451 857.567C745.724 861.171 741.893 864.654 737.973 868.038C736.898 868.964 735.773 869.835 734.684 870.751V870.751ZM884.077 420.322C885.371 422.905 886.535 425.553 887.734 428.18C888.759 430.43 889.838 432.649 890.794 434.923C891.923 437.616 892.913 440.363 893.943 443.09C894.799 445.369 895.724 447.619 896.515 449.923C897.475 452.725 898.291 455.576 899.152 458.413C899.844 460.697 900.605 462.956 901.227 465.256C902.028 468.202 902.67 471.188 903.356 474.169C903.874 476.403 904.466 478.622 904.919 480.877C905.555 484.022 906.018 487.202 906.526 490.372C906.869 492.497 907.292 494.602 907.575 496.732C908.048 500.251 908.332 503.799 908.65 507.343C908.809 509.154 909.063 510.956 909.187 512.772C909.541 518.147 909.73 523.536 909.73 528.94C909.73 533.116 909.595 537.296 909.381 541.477C908.819 552.395 907.555 563.299 905.55 574.018C904.924 577.318 904.272 580.443 903.59 583.439C902.903 586.435 902.187 589.301 901.431 592.078C899.192 600.449 896.51 608.665 893.406 616.687C891.331 622.037 889.077 627.307 886.634 632.483C884.196 637.663 881.569 642.75 878.768 647.736C866.161 670.175 849.961 690.599 830.632 708.236C829.234 709.51 828.294 711.202 827.941 713.058C826.08 722.902 823.488 733.109 820.229 743.4C818.97 747.402 817.622 751.358 816.184 755.284C815.721 756.548 815.194 757.788 814.711 759.047C813.702 761.684 812.701 764.322 811.612 766.925C810.98 768.433 810.279 769.905 809.622 771.398C808.602 773.713 807.597 776.037 806.512 778.316C805.761 779.898 804.945 781.446 804.164 783.014C803.089 785.169 802.029 787.333 800.89 789.458C800.044 791.056 799.129 792.624 798.243 794.201C797.099 796.252 795.96 798.312 794.761 800.337C793.815 801.925 792.81 803.482 791.835 805.055C790.606 807.026 789.392 808.996 788.114 810.942C787.079 812.51 785.994 814.053 784.924 815.6C783.621 817.491 782.322 819.387 780.969 821.249C779.84 822.806 778.66 824.329 777.496 825.867C776.506 827.171 775.501 828.47 774.486 829.764C773.387 829.858 772.282 829.958 771.183 830.032C770.377 830.082 769.566 830.147 768.76 830.186C766.168 830.316 763.575 830.401 761.028 830.401C757.272 830.401 753.535 830.246 749.819 829.987C748.605 829.903 747.401 829.749 746.192 829.634C743.689 829.4 741.192 829.146 738.714 828.798C737.306 828.599 735.908 828.35 734.505 828.116C732.241 827.733 729.982 827.32 727.733 826.842C726.286 826.534 724.848 826.195 723.41 825.847C721.216 825.315 719.042 824.732 716.877 824.105C715.469 823.697 714.061 823.289 712.663 822.846C710.439 822.134 708.235 821.348 706.046 820.537C704.767 820.064 703.484 819.621 702.22 819.119C699.713 818.113 697.24 817.014 694.777 815.884C693.882 815.471 692.966 815.103 692.075 814.675C688.852 813.117 685.682 811.44 682.558 809.658C685.389 807.409 688.135 805.04 690.837 802.612C691.613 801.915 692.364 801.193 693.125 800.477C695.225 798.521 697.28 796.515 699.295 794.445C700.071 793.649 700.847 792.862 701.608 792.051C704.225 789.269 706.787 786.423 709.245 783.457C711.743 780.416 714.131 777.296 716.415 774.106C730.097 754.971 739.818 733.308 744.983 710.456C745.515 708.102 745.903 705.713 746.341 703.339C746.61 701.871 746.948 700.418 747.182 698.94V698.935V698.93C748.595 689.927 749.306 680.696 749.306 671.499C749.306 613.04 720.38 558.457 671.931 525.492C668.975 523.481 665.099 523.481 662.144 525.482C613.645 558.367 584.689 612.955 584.689 671.499C584.689 676.998 585.032 682.487 585.535 687.957C585.878 691.634 586.251 695.312 586.818 698.935V698.94H586.823C590.45 722.15 598.734 744.396 611.088 764.342C615.207 770.996 619.78 777.39 624.78 783.482C624.785 783.487 624.79 783.492 624.795 783.502C627.228 786.443 629.775 789.269 632.377 792.036C633.138 792.848 633.914 793.629 634.69 794.425C636.701 796.48 638.75 798.486 640.845 800.432C641.611 801.148 642.372 801.875 643.148 802.577C645.87 805.02 648.636 807.399 651.492 809.663C648.368 811.44 645.198 813.117 641.974 814.675C641.094 815.098 640.188 815.466 639.298 815.874C636.825 817.009 634.342 818.113 631.82 819.124C630.566 819.621 629.287 820.064 628.019 820.532C625.82 821.348 623.606 822.135 621.367 822.851C619.979 823.289 618.58 823.697 617.182 824.105C615.003 824.727 612.819 825.314 610.615 825.852C609.182 826.195 607.744 826.534 606.301 826.842C604.053 827.32 601.784 827.738 599.505 828.116C598.112 828.355 596.719 828.599 595.311 828.798C592.823 829.146 590.316 829.405 587.803 829.634C586.599 829.749 585.405 829.903 584.196 829.987C580.475 830.246 576.733 830.401 572.972 830.401C570.42 830.401 567.837 830.316 565.24 830.186C564.434 830.147 563.628 830.082 562.817 830.032C561.718 829.958 560.618 829.858 559.514 829.764C558.504 828.48 557.509 827.186 556.524 825.887C555.345 824.339 554.16 822.801 553.016 821.234C551.683 819.392 550.399 817.521 549.115 815.655C548.026 814.077 546.926 812.515 545.877 810.922C544.608 808.996 543.404 807.041 542.185 805.09C541.2 803.502 540.19 801.93 539.239 800.327C538.035 798.312 536.906 796.261 535.762 794.216C534.876 792.628 533.961 791.056 533.105 789.454C531.976 787.334 530.916 785.179 529.846 783.029C529.06 781.456 528.239 779.898 527.483 778.311C526.413 776.047 525.413 773.747 524.403 771.453C523.731 769.935 523.025 768.437 522.383 766.91C521.314 764.357 520.333 761.769 519.343 759.181C518.841 757.867 518.293 756.583 517.811 755.264C516.373 751.343 515.02 747.387 513.766 743.385C510.517 733.119 507.92 722.917 506.054 713.053C505.701 711.197 504.756 709.51 503.368 708.241C469.003 676.884 444.525 636.713 432.554 592.038C431.808 589.311 431.101 586.475 430.42 583.484V583.478C429.738 580.498 429.086 577.368 428.455 574.048C428.455 574.043 428.455 574.033 428.45 574.028C425.678 559.203 424.27 544.034 424.27 528.94C424.27 523.536 424.454 518.141 424.818 512.767C424.932 511 425.181 509.248 425.335 507.482C425.654 503.893 425.947 500.296 426.425 496.732C426.708 494.612 427.126 492.517 427.47 490.407C427.977 487.227 428.445 484.032 429.082 480.877C429.534 478.632 430.126 476.418 430.644 474.189C431.33 471.203 431.972 468.207 432.773 465.251C433.395 462.967 434.151 460.717 434.838 458.453C435.704 455.601 436.52 452.734 437.485 449.918C438.276 447.624 439.196 445.369 440.057 443.095C441.087 440.368 442.077 437.621 443.206 434.923C444.162 432.654 445.241 430.434 446.261 428.19C447.46 425.557 448.629 422.91 449.923 420.317C451.037 418.093 452.271 415.923 453.45 413.728C454.59 411.628 455.704 409.523 456.903 407.458C459.426 406.433 461.983 405.492 464.54 404.546C466.794 403.705 469.028 402.815 471.307 402.033C474.501 400.949 477.745 400.013 480.979 399.043C483.148 398.396 485.297 397.674 487.486 397.077C491.094 396.096 494.745 395.28 498.397 394.449C500.258 394.026 502.094 393.519 503.965 393.131C509.507 391.991 515.084 391.01 520.702 390.214C533.607 388.393 546.668 387.472 559.529 387.472C595.54 387.472 630.596 394.375 663.721 408C665.846 408.876 668.229 408.871 670.353 407.996C678.597 404.592 686.966 401.606 695.454 399.043C720.902 391.354 747.381 387.472 774.466 387.472C787.328 387.472 800.393 388.393 813.293 390.214C818.911 391.01 824.488 391.991 830.03 393.131C831.891 393.514 833.727 394.021 835.583 394.444C839.24 395.28 842.901 396.096 846.519 397.077C848.693 397.669 850.827 398.385 852.986 399.032C856.235 400.003 859.489 400.948 862.693 402.038C864.972 402.815 867.206 403.706 869.46 404.542C872.012 405.492 874.574 406.433 877.097 407.458C878.296 409.518 879.41 411.623 880.54 413.719C881.729 415.918 882.963 418.093 884.077 420.322V420.322ZM462.267 218.498C532.911 221.081 600.441 238.857 663.02 271.344C665.537 272.653 668.532 272.648 671.045 271.344C733.505 238.862 801.029 221.091 871.788 218.498C1006.2 293.161 1089.59 434.67 1089.59 588.39C1089.59 614.706 1087.19 640.769 1082.43 666.299C1082.33 665.686 1082.19 665.089 1082.09 664.487C1081.32 660.028 1080.47 655.589 1079.56 651.17C1079.3 649.901 1079.04 648.632 1078.77 647.368C1077.68 642.317 1076.52 637.285 1075.24 632.289C1075.07 631.622 1074.88 630.96 1074.71 630.298C1073.55 625.844 1072.3 621.415 1071 617.011C1070.62 615.752 1070.25 614.498 1069.86 613.244C1068.35 608.307 1066.76 603.39 1065.07 598.513C1064.89 598.02 1064.71 597.538 1064.53 597.045C1062.96 592.581 1061.29 588.147 1059.56 583.738C1059.08 582.498 1058.59 581.264 1058.09 580.025C1056.15 575.213 1054.15 570.42 1052.02 565.678C1051.9 565.404 1051.76 565.13 1051.64 564.856C1049.61 560.347 1047.48 555.884 1045.29 551.435C1044.68 550.22 1044.08 549.006 1043.47 547.797C1041.11 543.134 1038.69 538.486 1036.16 533.892C1036.15 533.882 1036.14 533.872 1036.14 533.857C1030.91 523.078 1025.04 512.657 1018.54 502.629C1007.7 485.928 995.126 470.332 980.931 456.024C974.125 449.171 967.035 442.692 959.677 436.596C937.596 418.322 913.093 403.512 886.545 392.429C886.54 392.429 886.54 392.429 886.535 392.424C883.714 391.244 880.878 390.109 878.022 389.02C860.867 382.475 843.051 377.579 824.856 374.409C821.826 373.881 818.781 373.398 815.731 372.965C802.025 371.034 788.139 370.054 774.466 370.054C760.516 370.054 746.719 371.024 733.117 372.95C724.052 374.239 715.076 375.951 706.2 378.086C701.767 379.151 697.354 380.331 692.971 381.61C684.205 384.168 675.553 387.148 667.025 390.547C658.462 387.148 649.776 384.168 640.994 381.61C636.601 380.331 632.183 379.151 627.74 378.086C618.854 375.951 609.874 374.239 600.809 372.95C587.216 371.024 573.44 370.054 559.529 370.054C545.857 370.054 531.976 371.034 518.264 372.965C515.214 373.398 512.169 373.881 509.139 374.409C487.919 378.111 467.207 384.158 447.46 392.429C411.743 407.358 379.801 428.981 352.527 456.681C330.252 479.264 311.938 505.103 298.311 533.086C295.729 537.749 293.276 542.457 290.878 547.185C290.266 548.394 289.664 549.603 289.057 550.817C286.823 555.336 284.654 559.875 282.589 564.449C282.475 564.697 282.355 564.941 282.246 565.185C280.096 569.982 278.071 574.815 276.106 579.667C275.604 580.906 275.116 582.145 274.623 583.389C272.872 587.853 271.181 592.332 269.584 596.846C269.419 597.318 269.235 597.781 269.071 598.254C267.355 603.166 265.758 608.108 264.235 613.074C263.842 614.338 263.469 615.607 263.091 616.876C261.772 621.31 260.524 625.759 259.354 630.233C259.18 630.895 258.991 631.552 258.817 632.214C257.538 637.236 256.369 642.287 255.275 647.358C255.001 648.632 254.742 649.911 254.479 651.185C253.563 655.629 252.712 660.093 251.941 664.577C251.837 665.174 251.702 665.771 251.598 666.373C246.822 640.769 244.414 614.682 244.414 588.39C244.414 434.66 327.824 293.151 462.267 218.498V218.498ZM1087.39 718.632C1100.4 676.73 1107 632.911 1107 588.39C1107 427.518 1019.28 279.486 878.077 202.071C876.714 201.324 875.171 200.951 873.614 201.005C800.875 203.319 731.395 221.086 667.03 253.827C602.545 221.081 533.06 203.309 460.441 201.005C458.889 200.956 457.346 201.324 455.983 202.071C314.739 279.476 227 427.503 227 588.39C227 632.831 233.612 676.71 246.662 718.806C246.662 718.806 246.662 718.806 246.662 718.811C274.738 809.579 332.914 890.254 410.479 945.971C438.171 965.892 468.093 982.474 499.432 995.344C543.15 1052 599.659 1099.24 663.035 1132.02C664.284 1132.67 665.657 1133 667.03 1133C668.408 1133 669.781 1132.67 671.035 1132.02C734.296 1099.23 790.78 1052.02 834.568 995.398C865.967 982.454 895.888 965.848 923.516 945.976C1001.12 890.209 1059.32 809.474 1087.39 718.647L1087.39 718.642V718.637C1087.39 718.632 1087.39 718.632 1087.39 718.632" fill="#DFCB8E"/>
<path d="M1087.39 718.632C1100.4 676.73 1107 632.911 1107 588.39C1107 427.518 1019.28 279.486 878.077 202.071C876.714 201.324 875.171 200.951 873.614 201.005C800.875 203.319 731.395 221.086 667.03 253.827C602.545 221.081 533.06 203.309 460.441 201.005C458.889 200.956 457.346 201.324 455.983 202.071C314.739 279.476 227 427.503 227 588.39C227 632.831 233.612 676.71 246.662 718.806C246.662 718.806 246.662 718.806 246.662 718.811C274.738 809.579 332.914 890.254 410.479 945.971C438.171 965.892 468.093 982.474 499.432 995.344C543.15 1052 599.659 1099.24 663.035 1132.02C664.284 1132.67 665.657 1133 667.03 1133C668.408 1133 669.781 1132.67 671.035 1132.02C734.296 1099.23 790.78 1052.02 834.568 995.398C865.967 982.454 895.888 965.848 923.516 945.976C1001.12 890.209 1059.32 809.474 1087.39 718.647L1087.39 718.642V718.637C1087.39 718.632 1087.39 718.632 1087.39 718.632M913.352 931.833C894.863 945.135 875.311 956.919 854.952 967.052C855.375 966.42 855.753 965.763 856.176 965.126C858.658 961.359 861.046 957.547 863.42 953.725C864.574 951.868 865.773 950.037 866.902 948.166C870.335 942.463 873.674 936.715 876.853 930.917C890.381 906.273 901.849 880.296 910.924 853.706C919.695 828.077 926.302 801.825 930.72 775.141C935.133 748.452 937.357 721.329 937.357 693.953C937.357 689.275 937.298 684.592 937.124 679.909C937.124 679.86 937.124 679.81 937.124 679.76C936.765 665.98 935.815 652.265 934.303 639.032C933.701 633.578 932.999 628.128 932.218 622.694C931.959 620.897 931.636 619.121 931.357 617.329C930.79 613.696 930.238 610.069 929.596 606.456C929.208 604.276 928.745 602.116 928.332 599.946C927.715 596.741 927.118 593.532 926.442 590.347C925.949 588.047 925.392 585.778 924.869 583.494C924.252 580.776 923.675 578.049 923.009 575.357C923.352 573.441 923.611 571.515 923.914 569.589C924.173 567.917 924.467 566.245 924.7 564.563C925.024 562.209 925.263 559.845 925.521 557.481C925.69 555.894 925.904 554.316 926.049 552.723C926.292 550.086 926.442 547.439 926.601 544.791C926.68 543.472 926.805 542.158 926.865 540.844C927.044 536.873 927.143 532.907 927.143 528.94C927.143 524.695 927.004 520.466 926.795 516.241C926.755 515.37 926.715 514.503 926.666 513.638C926.422 509.537 926.098 505.446 925.666 501.371C925.586 500.649 925.486 499.922 925.407 499.201C924.969 495.389 924.452 491.592 923.85 487.81C923.765 487.272 923.695 486.73 923.606 486.192C922.929 482.136 922.143 478.105 921.277 474.089C921.088 473.208 920.894 472.328 920.695 471.447C919.785 467.421 918.805 463.409 917.705 459.438C917.591 459.03 917.461 458.622 917.347 458.214C916.297 454.486 915.148 450.784 913.934 447.106C913.685 446.355 913.446 445.603 913.192 444.852C911.879 441 910.471 437.178 908.973 433.386C908.67 432.614 908.352 431.843 908.038 431.071C906.521 427.329 904.938 423.617 903.247 419.949C903.182 419.815 903.132 419.67 903.068 419.541C903.267 419.645 903.471 419.735 903.665 419.845C904.401 420.233 905.113 420.656 905.844 421.054C908.685 422.611 911.496 424.214 914.282 425.871C915.382 426.528 916.476 427.195 917.571 427.867C920.103 429.424 922.611 431.032 925.093 432.669C926.049 433.301 927.009 433.918 927.954 434.56C931.283 436.825 934.576 439.149 937.805 441.557C938.228 441.876 938.641 442.214 939.064 442.533C941.875 444.658 944.651 446.842 947.388 449.087C948.363 449.883 949.328 450.704 950.298 451.515C952.557 453.421 954.791 455.362 956.995 457.343C957.91 458.164 958.826 458.975 959.726 459.806C962.726 462.573 965.687 465.385 968.577 468.291C981.916 481.748 993.737 496.404 1003.98 512.209C1010.12 521.69 1015.69 531.583 1020.68 541.87C1022.54 545.234 1024.36 548.623 1026.11 552.022C1026.6 552.967 1027.06 553.923 1027.53 554.873C1028.78 557.337 1030.04 559.795 1031.23 562.279C1031.85 563.563 1032.43 564.866 1033.04 566.16C1034.05 568.315 1035.07 570.46 1036.04 572.63C1036.69 574.083 1037.3 575.551 1037.93 577.009C1038.8 579.034 1039.7 581.055 1040.54 583.091C1041.17 584.609 1041.76 586.146 1042.37 587.674C1043.16 589.665 1043.98 591.65 1044.74 593.651C1045.34 595.228 1045.9 596.816 1046.48 598.398C1047.2 600.369 1047.94 602.33 1048.62 604.311C1049.2 605.943 1049.72 607.585 1050.27 609.222C1050.91 611.168 1051.59 613.109 1052.2 615.06C1052.73 616.727 1053.21 618.404 1053.72 620.076C1054.31 622.022 1054.91 623.958 1055.47 625.909C1055.95 627.601 1056.39 629.303 1056.85 631C1057.38 632.946 1057.92 634.887 1058.42 636.842C1058.86 638.569 1059.26 640.306 1059.68 642.043C1060.14 643.984 1060.63 645.92 1061.06 647.865C1061.46 649.617 1061.81 651.379 1062.18 653.141C1062.59 655.081 1063.01 657.022 1063.4 658.973C1063.74 660.75 1064.04 662.536 1064.37 664.318C1064.72 666.269 1065.09 668.214 1065.41 670.17C1065.71 671.962 1065.96 673.758 1066.23 675.55C1066.53 677.516 1066.84 679.476 1067.11 681.447C1067.36 683.259 1067.57 685.085 1067.79 686.907C1068.03 688.867 1068.29 690.828 1068.5 692.794C1068.7 694.635 1068.86 696.486 1069.03 698.333C1069.22 700.293 1069.42 702.254 1069.58 704.225C1069.73 706.076 1069.83 707.942 1069.95 709.804C1070.07 711.535 1070.19 713.267 1070.29 715.004C1043.15 801.616 987.469 878.569 913.352 931.833V931.833ZM667.025 1114.46C606.854 1082.58 553.25 1037.16 511.791 982.887C497.298 964.011 484.049 943.707 472.411 922.531C459.366 898.768 448.311 873.717 439.554 848.062C422.633 798.63 414.056 746.779 414.056 693.953C414.056 689.444 414.111 684.936 414.28 680.432C414.285 680.317 414.285 680.208 414.285 680.099C414.549 670.175 415.23 660.347 416.121 650.642C416.414 647.408 416.643 644.133 417.006 640.943C417.006 640.938 417.006 640.933 417.006 640.928C417.559 635.932 418.205 630.95 418.917 625.974C419.151 624.331 419.424 622.704 419.673 621.072C420.066 618.539 420.474 616.015 420.902 613.492C420.912 613.527 420.927 613.557 420.942 613.592C422.489 618.106 424.191 622.56 425.982 626.969C426.27 627.681 426.549 628.392 426.848 629.104C428.614 633.349 430.499 637.534 432.49 641.675C432.858 642.436 433.231 643.187 433.599 643.949C435.649 648.104 437.793 652.21 440.062 656.251C440.365 656.793 440.689 657.331 441.002 657.873C443.361 662.009 445.813 666.09 448.401 670.091C448.48 670.205 448.55 670.329 448.624 670.449C451.241 674.475 453.998 678.412 456.839 682.293C457.267 682.881 457.684 683.473 458.117 684.05C460.874 687.752 463.734 691.375 466.69 694.929C467.232 695.585 467.784 696.242 468.337 696.894C471.337 700.428 474.416 703.906 477.61 707.291C478.088 707.793 478.576 708.286 479.053 708.783C482.442 712.317 485.904 715.786 489.501 719.14C490.472 723.962 491.601 728.854 492.88 733.781C494.158 738.703 495.586 743.664 497.158 748.626C499.885 757.29 502.999 765.78 506.502 774.091C508.253 778.246 510.099 782.357 512.04 786.423C514.169 790.872 516.438 795.256 518.791 799.591C527.184 815.043 536.991 829.753 548.205 843.603C548.205 843.603 548.205 843.603 548.205 843.608C548.205 843.608 548.21 843.608 548.21 843.613C555.882 853.103 564.136 862.086 572.892 870.507C594.799 891.577 619.894 909.16 647.124 922.467C652.572 925.124 658.104 927.618 663.711 929.932C664.776 930.37 665.905 930.584 667.03 930.584C667.348 930.584 667.662 930.529 667.98 930.494C668.224 930.469 668.473 930.469 668.717 930.419C669.274 930.31 669.821 930.146 670.353 929.927C675.97 927.608 681.508 925.109 686.961 922.447C725.116 903.785 759.023 876.782 785.79 843.608C785.795 843.608 785.795 843.603 785.795 843.603C785.8 843.598 785.8 843.598 785.8 843.598C808.776 815.217 825.946 783.268 836.837 748.641C839.986 738.688 842.558 728.779 844.499 719.14C848.096 715.781 851.564 712.312 854.952 708.774C855.424 708.281 855.912 707.793 856.38 707.291C859.574 703.906 862.663 700.433 865.663 696.894C866.216 696.238 866.768 695.581 867.315 694.924C870.266 691.37 873.126 687.752 875.878 684.06C876.321 683.468 876.743 682.865 877.176 682.268C880.012 678.396 882.764 674.47 885.371 670.454C885.46 670.32 885.54 670.18 885.629 670.041C888.202 666.06 890.644 661.999 892.993 657.888C893.311 657.336 893.64 656.788 893.948 656.236C896.212 652.205 898.351 648.109 900.396 643.959C900.774 643.192 901.147 642.431 901.515 641.665C903.506 637.534 905.386 633.349 907.152 629.114C907.446 628.397 907.735 627.68 908.023 626.964C909.814 622.555 911.511 618.111 913.053 613.607C913.068 613.567 913.083 613.537 913.098 613.497C913.526 616.03 913.939 618.568 914.332 621.106C914.581 622.734 914.854 624.351 915.083 625.978C915.795 630.965 916.446 635.967 916.999 640.978C918.451 653.703 919.367 666.866 919.715 680.099C919.715 680.208 919.715 680.317 919.72 680.432C919.889 684.936 919.944 689.444 919.944 693.953C919.944 746.779 911.367 798.63 894.446 848.067C885.689 873.716 874.634 898.769 861.584 922.537C857.419 930.136 852.942 937.621 848.315 945.046C840.23 958.024 831.543 970.739 822.199 982.962C780.681 1037.18 727.102 1082.58 667.025 1114.46V1114.46ZM420.643 931.828C346.566 878.613 290.903 801.716 263.767 715.168C263.862 713.407 263.986 711.65 264.101 709.893C264.225 708.052 264.325 706.206 264.474 704.369C264.628 702.364 264.832 700.363 265.021 698.363C265.19 696.546 265.345 694.72 265.539 692.903C265.753 690.913 266.011 688.932 266.255 686.946C266.474 685.135 266.678 683.318 266.922 681.512C267.195 679.521 267.514 677.541 267.812 675.555C268.081 673.773 268.33 671.987 268.628 670.21C268.957 668.219 269.335 666.234 269.693 664.248C270.006 662.486 270.305 660.725 270.648 658.973C271.031 656.987 271.469 655.017 271.882 653.046C272.25 651.304 272.599 649.557 272.987 647.826C273.434 645.83 273.932 643.849 274.41 641.864C274.823 640.167 275.211 638.455 275.643 636.763C276.156 634.742 276.723 632.737 277.265 630.731C277.718 629.079 278.141 627.422 278.614 625.779C279.191 623.754 279.823 621.743 280.435 619.728C280.922 618.111 281.39 616.488 281.902 614.876C282.539 612.865 283.231 610.87 283.897 608.869C284.435 607.267 284.947 605.659 285.509 604.057C286.221 602.026 286.982 600.006 287.728 597.985C288.296 596.438 288.838 594.88 289.425 593.342C290.206 591.307 291.037 589.276 291.853 587.251C292.46 585.738 293.037 584.21 293.664 582.702C294.525 580.632 295.44 578.577 296.336 576.517C296.963 575.068 297.565 573.615 298.211 572.167C299.216 569.938 300.276 567.718 301.321 565.498C301.908 564.244 302.475 562.98 303.077 561.726C304.321 559.153 305.63 556.59 306.928 554.032C307.381 553.151 307.804 552.261 308.257 551.385C310.038 547.946 311.869 544.527 313.754 541.128C317.008 534.455 320.521 527.935 324.292 521.57C328.859 513.857 333.854 506.412 339.168 499.181C342.616 494.493 346.168 489.875 349.92 485.401C352.303 482.559 354.746 479.767 357.248 477.015C359.746 474.268 362.308 471.566 364.93 468.908C364.935 468.903 364.945 468.893 364.955 468.884C367.841 465.952 370.806 463.111 373.801 460.324C374.707 459.483 375.627 458.667 376.542 457.835C378.751 455.84 380.99 453.874 383.259 451.958C384.234 451.127 385.209 450.296 386.199 449.48C388.901 447.255 391.647 445.081 394.424 442.966C394.896 442.607 395.359 442.229 395.832 441.871C399.085 439.432 402.394 437.078 405.742 434.794C406.678 434.157 407.633 433.545 408.573 432.918C411.081 431.256 413.613 429.624 416.176 428.046C417.285 427.364 418.395 426.683 419.509 426.016C422.265 424.368 425.051 422.776 427.868 421.228C428.654 420.8 429.425 420.347 430.216 419.919C430.445 419.795 430.689 419.685 430.922 419.561C430.853 419.705 430.803 419.849 430.733 419.994C429.047 423.652 427.469 427.354 425.957 431.086C425.649 431.858 425.325 432.625 425.022 433.396C423.529 437.188 422.121 441.01 420.808 444.861C420.549 445.613 420.31 446.369 420.066 447.121C418.847 450.789 417.703 454.486 416.658 458.209C416.539 458.622 416.409 459.035 416.29 459.453C415.195 463.424 414.215 467.435 413.305 471.456C413.106 472.332 412.912 473.213 412.723 474.094C411.857 478.11 411.066 482.136 410.394 486.192C410.305 486.74 410.235 487.287 410.146 487.834C409.544 491.607 409.031 495.394 408.593 499.196C408.509 499.927 408.414 500.649 408.339 501.38C407.902 505.451 407.573 509.542 407.334 513.643C407.285 514.509 407.245 515.375 407.205 516.241C407.001 520.466 406.857 524.695 406.857 528.94C406.857 532.907 406.951 536.873 407.135 540.844C407.195 542.138 407.315 543.427 407.394 544.721C407.553 547.394 407.708 550.071 407.951 552.739C408.091 554.276 408.295 555.809 408.464 557.342C408.728 559.76 408.976 562.179 409.305 564.588C409.529 566.24 409.817 567.882 410.076 569.53C410.379 571.47 410.643 573.421 410.991 575.357C410.325 578.054 409.743 580.787 409.126 583.504C408.603 585.788 408.051 588.052 407.558 590.347C406.882 593.532 406.285 596.741 405.668 599.946C405.25 602.116 404.797 604.276 404.409 606.45C403.762 610.068 403.205 613.706 402.643 617.344C402.364 619.126 402.041 620.892 401.787 622.674C401.001 628.108 400.304 633.548 399.702 638.997C398.185 652.265 397.235 665.98 396.876 679.76C396.876 679.81 396.871 679.86 396.871 679.909C396.697 684.587 396.643 689.27 396.643 693.953C396.643 721.329 398.867 748.452 403.28 775.141C407.698 801.825 414.305 828.071 423.076 853.701C432.156 880.295 443.619 906.273 457.152 930.922C460.371 936.78 463.729 942.562 467.177 948.28C468.307 950.147 469.496 951.968 470.645 953.819C473.023 957.641 475.406 961.453 477.879 965.201C478.277 965.803 478.645 966.43 479.048 967.032C458.719 956.934 439.166 945.15 420.643 931.828V931.828ZM700.116 576.153C720.484 603.325 731.893 636.648 731.893 671.499C731.893 675.227 731.719 678.959 731.46 682.671C731.415 683.383 731.37 684.09 731.311 684.796C731.266 685.379 731.166 685.941 731.112 686.518C730.783 686.434 730.44 686.379 730.112 686.299C725.818 685.234 721.494 684.289 717.146 683.448C716.255 683.274 715.37 683.08 714.474 682.915C710.086 682.109 705.668 681.442 701.245 680.865C700.016 680.701 698.787 680.546 697.553 680.402C693.2 679.894 688.842 679.482 684.463 679.193C683.294 679.118 682.125 679.068 680.956 679.009C676.757 678.785 672.552 678.646 668.343 678.621C667.438 678.621 666.532 678.616 665.627 678.621C661.413 678.646 657.199 678.785 652.99 679.009C651.825 679.073 650.661 679.118 649.492 679.198C645.119 679.486 640.75 679.9 636.392 680.407C635.173 680.551 633.954 680.706 632.735 680.865C628.302 681.447 623.884 682.114 619.491 682.92C618.61 683.084 617.735 683.274 616.854 683.448C612.506 684.289 608.172 685.234 603.869 686.304C603.545 686.384 603.212 686.434 602.888 686.518C602.834 685.941 602.734 685.379 602.689 684.801C602.63 684.09 602.59 683.378 602.535 682.667C602.281 678.954 602.102 675.227 602.102 671.499C602.102 620.738 626.262 573.277 667.025 543.353C672.115 547.105 676.946 551.121 681.503 555.391C688.339 561.791 694.563 568.743 700.116 576.153V576.153ZM632.034 764.337C631.382 763.436 630.79 762.496 630.158 761.575C628.869 759.709 627.591 757.837 626.392 755.921C625.69 754.802 625.038 753.652 624.367 752.513C623.317 750.751 622.277 748.984 621.302 747.182C620.635 745.948 620.013 744.699 619.377 743.45C618.481 741.693 617.605 739.932 616.779 738.145C616.177 736.841 615.605 735.527 615.043 734.209C614.277 732.427 613.536 730.636 612.834 728.824C612.317 727.48 611.814 726.132 611.326 724.768C610.68 722.942 610.068 721.1 609.486 719.249C609.053 717.881 608.625 716.512 608.232 715.133C607.69 713.237 607.207 711.326 606.734 709.41C606.401 708.052 606.058 706.693 605.759 705.325C605.65 704.837 605.58 704.339 605.476 703.852C605.58 703.827 605.68 703.792 605.784 703.767C610.147 702.637 614.55 701.662 618.973 700.781C619.884 700.597 620.79 700.408 621.7 700.239C625.939 699.443 630.198 698.766 634.472 698.198C635.521 698.059 636.566 697.93 637.616 697.805C641.89 697.293 646.173 696.87 650.472 696.581C651.398 696.521 652.323 696.481 653.248 696.432C657.492 696.198 661.746 696.049 665.995 696.029C666.657 696.029 667.313 696.029 667.97 696.029C672.209 696.049 676.453 696.193 680.687 696.432C681.622 696.481 682.558 696.516 683.493 696.581C687.782 696.865 692.056 697.288 696.324 697.795C697.389 697.925 698.454 698.054 699.514 698.193C703.777 698.761 708.026 699.438 712.255 700.229C713.181 700.403 714.106 700.597 715.032 700.781C719.445 701.662 723.848 702.632 728.206 703.762C728.316 703.792 728.42 703.822 728.525 703.852C728.425 704.339 728.345 704.837 728.241 705.325C727.942 706.693 727.599 708.052 727.266 709.416C726.793 711.327 726.31 713.238 725.768 715.129C725.375 716.512 724.947 717.886 724.514 719.259C723.932 721.105 723.325 722.937 722.674 724.763C722.191 726.127 721.688 727.48 721.166 728.829C720.465 730.635 719.728 732.427 718.962 734.209C718.395 735.522 717.828 736.836 717.226 738.135C716.4 739.927 715.519 741.688 714.628 743.45C713.992 744.694 713.37 745.943 712.703 747.178C711.733 748.974 710.693 750.736 709.648 752.497C708.972 753.637 708.325 754.792 707.618 755.911C706.419 757.822 705.146 759.689 703.867 761.55C703.235 762.47 702.633 763.411 701.981 764.322C700.011 767.064 697.961 769.756 695.807 772.374C687.24 782.73 677.578 791.867 667.03 799.606C656.398 791.822 646.726 782.69 638.213 772.404C636.064 769.781 634.009 767.084 632.034 764.337V764.337ZM734.684 870.751C731.793 873.164 728.878 875.543 725.893 877.837C724.395 878.987 722.863 880.092 721.345 881.211C718.668 883.182 715.962 885.123 713.216 886.994C711.569 888.119 709.902 889.218 708.23 890.308C705.479 892.1 702.693 893.832 699.877 895.524C698.205 896.524 696.538 897.529 694.852 898.5C691.792 900.246 688.682 901.909 685.553 903.541C684.075 904.312 682.612 905.123 681.115 905.87C676.483 908.179 671.791 910.389 667.03 912.429C662.269 910.394 657.587 908.189 652.955 905.885C651.457 905.139 649.994 904.327 648.517 903.556C645.392 901.929 642.288 900.271 639.233 898.525C637.536 897.554 635.875 896.549 634.203 895.544C631.387 893.857 628.601 892.12 625.849 890.333C624.178 889.248 622.511 888.148 620.864 887.024C618.118 885.153 615.411 883.212 612.73 881.236C611.212 880.121 609.68 879.016 608.187 877.867C605.197 875.573 602.276 873.189 599.386 870.77C598.291 869.86 597.172 868.989 596.092 868.063C592.167 864.674 588.326 861.186 584.589 857.583C583.863 856.881 583.181 856.134 582.46 855.418C579.937 852.934 577.48 850.386 575.052 847.804C599.684 847.585 623.441 842.25 645.367 832.317C645.517 832.252 645.661 832.192 645.81 832.122C649.228 830.56 652.606 828.888 655.935 827.106C656.413 826.847 656.885 826.583 657.358 826.32C660.627 824.528 663.861 822.667 667.03 820.666C670.508 822.866 674.055 824.936 677.662 826.877C678.886 827.534 680.155 828.096 681.389 828.723C683.797 829.948 686.195 831.197 688.648 832.301C690.15 832.983 691.692 833.546 693.21 834.183C695.454 835.118 697.678 836.094 699.956 836.935C701.608 837.547 703.295 838.045 704.967 838.607C707.156 839.339 709.33 840.115 711.549 840.762C713.295 841.274 715.076 841.667 716.838 842.125C719.017 842.688 721.186 843.29 723.39 843.773C725.211 844.166 727.052 844.449 728.883 844.788C731.067 845.191 733.246 845.634 735.45 845.952C737.316 846.221 739.206 846.385 741.082 846.599C743.281 846.843 745.475 847.127 747.684 847.296C749.595 847.435 751.52 847.47 753.441 847.555C755.282 847.634 757.117 847.784 758.968 847.804C756.555 850.372 754.112 852.91 751.61 855.383C750.878 856.1 750.187 856.856 749.451 857.567C745.724 861.171 741.893 864.654 737.973 868.038C736.898 868.964 735.773 869.835 734.684 870.751V870.751ZM884.077 420.322C885.371 422.905 886.535 425.553 887.734 428.18C888.759 430.43 889.838 432.649 890.794 434.923C891.923 437.616 892.913 440.363 893.943 443.09C894.799 445.369 895.724 447.619 896.515 449.923C897.475 452.725 898.291 455.576 899.152 458.413C899.844 460.697 900.605 462.956 901.227 465.256C902.028 468.202 902.67 471.188 903.356 474.169C903.874 476.403 904.466 478.622 904.919 480.877C905.555 484.022 906.018 487.202 906.526 490.372C906.869 492.497 907.292 494.602 907.575 496.732C908.048 500.251 908.332 503.799 908.65 507.343C908.809 509.154 909.063 510.956 909.187 512.772C909.541 518.147 909.73 523.536 909.73 528.94C909.73 533.116 909.595 537.296 909.381 541.477C908.819 552.395 907.555 563.299 905.55 574.018C904.924 577.318 904.272 580.443 903.59 583.439C902.903 586.435 902.187 589.301 901.431 592.078C899.192 600.449 896.51 608.665 893.406 616.687C891.331 622.037 889.077 627.307 886.634 632.483C884.196 637.663 881.569 642.75 878.768 647.736C866.161 670.175 849.961 690.599 830.632 708.236C829.234 709.51 828.294 711.202 827.941 713.058C826.08 722.902 823.488 733.109 820.229 743.4C818.97 747.402 817.622 751.358 816.184 755.284C815.721 756.548 815.194 757.788 814.711 759.047C813.702 761.684 812.701 764.322 811.612 766.925C810.98 768.433 810.279 769.905 809.622 771.398C808.602 773.713 807.597 776.037 806.512 778.316C805.761 779.898 804.945 781.446 804.164 783.014C803.089 785.169 802.029 787.333 800.89 789.458C800.044 791.056 799.129 792.624 798.243 794.201C797.099 796.252 795.96 798.312 794.761 800.337C793.815 801.925 792.81 803.482 791.835 805.055C790.606 807.026 789.392 808.996 788.114 810.942C787.079 812.51 785.994 814.053 784.924 815.6C783.621 817.491 782.322 819.387 780.969 821.249C779.84 822.806 778.66 824.329 777.496 825.867C776.506 827.171 775.501 828.47 774.486 829.764C773.387 829.858 772.282 829.958 771.183 830.032C770.377 830.082 769.566 830.147 768.76 830.186C766.168 830.316 763.575 830.401 761.028 830.401C757.272 830.401 753.535 830.246 749.819 829.987C748.605 829.903 747.401 829.749 746.192 829.634C743.689 829.4 741.192 829.146 738.714 828.798C737.306 828.599 735.908 828.35 734.505 828.116C732.241 827.733 729.982 827.32 727.733 826.842C726.286 826.534 724.848 826.195 723.41 825.847C721.216 825.315 719.042 824.732 716.877 824.105C715.469 823.697 714.061 823.289 712.663 822.846C710.439 822.134 708.235 821.348 706.046 820.537C704.767 820.064 703.484 819.621 702.22 819.119C699.713 818.113 697.24 817.014 694.777 815.884C693.882 815.471 692.966 815.103 692.075 814.675C688.852 813.117 685.682 811.44 682.558 809.658C685.389 807.409 688.135 805.04 690.837 802.612C691.613 801.915 692.364 801.193 693.125 800.477C695.225 798.521 697.28 796.515 699.295 794.445C700.071 793.649 700.847 792.862 701.608 792.051C704.225 789.269 706.787 786.423 709.245 783.457C711.743 780.416 714.131 777.296 716.415 774.106C730.097 754.971 739.818 733.308 744.983 710.456C745.515 708.102 745.903 705.713 746.341 703.339C746.61 701.871 746.948 700.418 747.182 698.94V698.935V698.93C748.595 689.927 749.306 680.696 749.306 671.499C749.306 613.04 720.38 558.457 671.931 525.492C668.975 523.481 665.099 523.481 662.144 525.482C613.645 558.367 584.689 612.955 584.689 671.499C584.689 676.998 585.032 682.487 585.535 687.957C585.878 691.634 586.251 695.312 586.818 698.935V698.94H586.823C590.45 722.15 598.734 744.396 611.088 764.342C615.207 770.996 619.78 777.39 624.78 783.482C624.785 783.487 624.79 783.492 624.795 783.502C627.228 786.443 629.775 789.269 632.377 792.036C633.138 792.848 633.914 793.629 634.69 794.425C636.701 796.48 638.75 798.486 640.845 800.432C641.611 801.148 642.372 801.875 643.148 802.577C645.87 805.02 648.636 807.399 651.492 809.663C648.368 811.44 645.198 813.117 641.974 814.675C641.094 815.098 640.188 815.466 639.298 815.874C636.825 817.009 634.342 818.113 631.82 819.124C630.566 819.621 629.287 820.064 628.019 820.532C625.82 821.348 623.606 822.135 621.367 822.851C619.979 823.289 618.58 823.697 617.182 824.105C615.003 824.727 612.819 825.314 610.615 825.852C609.182 826.195 607.744 826.534 606.301 826.842C604.053 827.32 601.784 827.738 599.505 828.116C598.112 828.355 596.719 828.599 595.311 828.798C592.823 829.146 590.316 829.405 587.803 829.634C586.599 829.749 585.405 829.903 584.196 829.987C580.475 830.246 576.733 830.401 572.972 830.401C570.42 830.401 567.837 830.316 565.24 830.186C564.434 830.147 563.628 830.082 562.817 830.032C561.718 829.958 560.618 829.858 559.514 829.764C558.504 828.48 557.509 827.186 556.524 825.887C555.345 824.339 554.16 822.801 553.016 821.234C551.683 819.392 550.399 817.521 549.115 815.655C548.026 814.077 546.926 812.515 545.877 810.922C544.608 808.996 543.404 807.041 542.185 805.09C541.2 803.502 540.19 801.93 539.239 800.327C538.035 798.312 536.906 796.261 535.762 794.216C534.876 792.628 533.961 791.056 533.105 789.454C531.976 787.334 530.916 785.179 529.846 783.029C529.06 781.456 528.239 779.898 527.483 778.311C526.413 776.047 525.413 773.747 524.403 771.453C523.731 769.935 523.025 768.437 522.383 766.91C521.314 764.357 520.333 761.769 519.343 759.181C518.841 757.867 518.293 756.583 517.811 755.264C516.373 751.343 515.02 747.387 513.766 743.385C510.517 733.119 507.92 722.917 506.054 713.053C505.701 711.197 504.756 709.51 503.368 708.241C469.003 676.884 444.525 636.713 432.554 592.038C431.808 589.311 431.101 586.475 430.42 583.484V583.478C429.738 580.498 429.086 577.368 428.455 574.048C428.455 574.043 428.455 574.033 428.45 574.028C425.678 559.203 424.27 544.034 424.27 528.94C424.27 523.536 424.454 518.141 424.818 512.767C424.932 511 425.181 509.248 425.335 507.482C425.654 503.893 425.947 500.296 426.425 496.732C426.708 494.612 427.126 492.517 427.47 490.407C427.977 487.227 428.445 484.032 429.082 480.877C429.534 478.632 430.126 476.418 430.644 474.189C431.33 471.203 431.972 468.207 432.773 465.251C433.395 462.967 434.151 460.717 434.838 458.453C435.704 455.601 436.52 452.734 437.485 449.918C438.276 447.624 439.196 445.369 440.057 443.095C441.087 440.368 442.077 437.621 443.206 434.923C444.162 432.654 445.241 430.434 446.261 428.19C447.46 425.557 448.629 422.91 449.923 420.317C451.037 418.093 452.271 415.923 453.45 413.728C454.59 411.628 455.704 409.523 456.903 407.458C459.426 406.433 461.983 405.492 464.54 404.546C466.794 403.705 469.028 402.815 471.307 402.033C474.501 400.949 477.745 400.013 480.979 399.043C483.148 398.396 485.297 397.674 487.486 397.077C491.094 396.096 494.745 395.28 498.397 394.449C500.258 394.026 502.094 393.519 503.965 393.131C509.507 391.991 515.084 391.01 520.702 390.214C533.607 388.393 546.668 387.472 559.529 387.472C595.54 387.472 630.596 394.375 663.721 408C665.846 408.876 668.229 408.871 670.353 407.996C678.597 404.592 686.966 401.606 695.454 399.043C720.902 391.354 747.381 387.472 774.466 387.472C787.328 387.472 800.393 388.393 813.293 390.214C818.911 391.01 824.488 391.991 830.03 393.131C831.891 393.514 833.727 394.021 835.583 394.444C839.24 395.28 842.901 396.096 846.519 397.077C848.693 397.669 850.827 398.385 852.986 399.032C856.235 400.003 859.489 400.948 862.693 402.038C864.972 402.815 867.206 403.706 869.46 404.542C872.012 405.492 874.574 406.433 877.097 407.458C878.296 409.518 879.41 411.623 880.54 413.719C881.729 415.918 882.963 418.093 884.077 420.322V420.322ZM462.267 218.498C532.911 221.081 600.441 238.857 663.02 271.344C665.537 272.653 668.532 272.648 671.045 271.344C733.505 238.862 801.029 221.091 871.788 218.498C1006.2 293.161 1089.59 434.67 1089.59 588.39C1089.59 614.706 1087.19 640.769 1082.43 666.299C1082.33 665.686 1082.19 665.089 1082.09 664.487C1081.32 660.028 1080.47 655.589 1079.56 651.17C1079.3 649.901 1079.04 648.632 1078.77 647.368C1077.68 642.317 1076.52 637.285 1075.24 632.289C1075.07 631.622 1074.88 630.96 1074.71 630.298C1073.55 625.844 1072.3 621.415 1071 617.011C1070.62 615.752 1070.25 614.498 1069.86 613.244C1068.35 608.307 1066.76 603.39 1065.07 598.513C1064.89 598.02 1064.71 597.538 1064.53 597.045C1062.96 592.581 1061.29 588.147 1059.56 583.738C1059.08 582.498 1058.59 581.264 1058.09 580.025C1056.15 575.213 1054.15 570.42 1052.02 565.678C1051.9 565.404 1051.76 565.13 1051.64 564.856C1049.61 560.347 1047.48 555.884 1045.29 551.435C1044.68 550.22 1044.08 549.006 1043.47 547.797C1041.11 543.134 1038.69 538.486 1036.16 533.892C1036.15 533.882 1036.14 533.872 1036.14 533.857C1030.91 523.078 1025.04 512.657 1018.54 502.629C1007.7 485.928 995.126 470.332 980.931 456.024C974.125 449.171 967.035 442.692 959.677 436.596C937.596 418.322 913.093 403.512 886.545 392.429C886.54 392.429 886.54 392.429 886.535 392.424C883.714 391.244 880.878 390.109 878.022 389.02C860.867 382.475 843.051 377.579 824.856 374.409C821.826 373.881 818.781 373.398 815.731 372.965C802.025 371.034 788.139 370.054 774.466 370.054C760.516 370.054 746.719 371.024 733.117 372.95C724.052 374.239 715.076 375.951 706.2 378.086C701.767 379.151 697.354 380.331 692.971 381.61C684.205 384.168 675.553 387.148 667.025 390.547C658.462 387.148 649.776 384.168 640.994 381.61C636.601 380.331 632.183 379.151 627.74 378.086C618.854 375.951 609.874 374.239 600.809 372.95C587.216 371.024 573.44 370.054 559.529 370.054C545.857 370.054 531.976 371.034 518.264 372.965C515.214 373.398 512.169 373.881 509.139 374.409C487.919 378.111 467.207 384.158 447.46 392.429C411.743 407.358 379.801 428.981 352.527 456.681C330.252 479.264 311.938 505.103 298.311 533.086C295.729 537.749 293.276 542.457 290.878 547.185C290.266 548.394 289.664 549.603 289.057 550.817C286.823 555.336 284.654 559.875 282.589 564.449C282.475 564.697 282.355 564.941 282.246 565.185C280.096 569.982 278.071 574.815 276.106 579.667C275.604 580.906 275.116 582.145 274.623 583.389C272.872 587.853 271.181 592.332 269.584 596.846C269.419 597.318 269.235 597.781 269.071 598.254C267.355 603.166 265.758 608.108 264.235 613.074C263.842 614.338 263.469 615.607 263.091 616.876C261.772 621.31 260.524 625.759 259.354 630.233C259.18 630.895 258.991 631.552 258.817 632.214C257.538 637.236 256.369 642.287 255.275 647.358C255.001 648.632 254.742 649.911 254.479 651.185C253.563 655.629 252.712 660.093 251.941 664.577C251.837 665.174 251.702 665.771 251.598 666.373C246.822 640.769 244.414 614.682 244.414 588.39C244.414 434.66 327.824 293.151 462.267 218.498V218.498Z" stroke="#DFCB8E"/>
</g>
<defs>
<clipPath id="clip0_26:2">
<rect width="1333" height="1333" fill="white"/>
</clipPath>
</defs>
</svg>
